<svg width="120" height="120" viewBox="0 0 120 120" fill="none" xmlns="http://www.w3.org/2000/svg">
<g id="website-webpage-url-domain-svgrepo-com 1">
<path id="Vector" d="M111.094 8.90625H8.90625C5.0625 8.90625 1.92188 12.0469 1.92188 15.8906V104.156C1.92188 108 5.0625 111.141 8.90625 111.141H111.094C114.938 111.141 118.078 108 118.078 104.156V15.8906C118.078 12.0469 114.938 8.90625 111.094 8.90625ZM93.6562 13.5469C96.1875 13.5469 98.2969 15.6562 98.2969 18.1875C98.2969 20.7656 96.1875 22.8281 93.6562 22.8281C91.125 22.8281 89.0156 20.7188 89.0156 18.1875C89.0156 15.6562 91.125 13.5469 93.6562 13.5469ZM80.9062 13.5469C83.4375 13.5469 85.5469 15.6562 85.5469 18.1875C85.5469 20.7656 83.4375 22.8281 80.9062 22.8281C78.375 22.8281 76.2656 20.7188 76.2656 18.1875C76.2656 15.6562 78.3281 13.5469 80.9062 13.5469ZM111.094 104.953H8.90625V27.4688H111.094V104.953ZM106.453 22.8281C103.922 22.8281 101.812 20.7188 101.812 18.1875C101.812 15.6562 103.922 13.5469 106.453 13.5469C108.984 13.5469 111.094 15.6562 111.094 18.1875C111.094 20.7656 108.984 22.8281 106.453 22.8281ZM45 34.6875H80.6719V41.4375H45V34.6875ZM59.0625 50.1094H104.203V56.8125H59.0625V50.1094ZM59.0625 63.5156H104.203V70.2188H59.0625V63.5156ZM59.0625 77.1094H104.203V83.8125H59.0625V77.1094ZM15.2812 90.5156H104.25V97.2188H15.2812V90.5156ZM15.2812 50.1094H47.0625V83.25H15.2812V50.1094Z" fill="#ffffff"/>
</g>
</svg>
