<svg width="120" height="120" viewBox="0 0 120 120" fill="none" xmlns="http://www.w3.org/2000/svg">
<g id="mobile-svgrepo-com 1">
<g id="Group">
<path id="Vector" d="M34.0533 6.66666H85.9467C92.3267 6.66666 97.5 11.84 97.5 18.22V101.78C97.5 108.16 92.3267 113.335 85.9467 113.335H34.0533C27.6733 113.335 22.5 108.162 22.5 101.78L22.4983 18.22C22.4983 11.84 27.6733 6.66666 34.0533 6.66666ZM90.8333 25H29.165V88.3333H90.8333V25ZM85.9467 13.3333H34.0533C31.355 13.3333 29.1667 15.5217 29.1667 18.22L29.165 21.6667H90.8333V18.22C90.8333 15.5217 88.645 13.3333 85.9467 13.3333ZM34.0533 106.668H85.9467C88.645 106.668 90.8333 104.48 90.8333 101.78V91.6667H29.165V101.78C29.165 104.48 31.3533 106.668 34.0533 106.668Z" fill="#0471A6"/>
<path id="Vector_2" d="M58.75 95H59.5833C61.1933 95 62.5 96.305 62.5 97.9167V98.75C62.5 100.362 61.1933 101.667 59.5833 101.667H58.75C57.14 101.667 55.8333 100.362 55.8333 98.75V97.9167C55.8333 96.305 57.14 95 58.75 95Z" fill="#0471A6"/>
<path id="Vector_3" d="M51.4617 50.0883C52.3333 49.7767 53.28 50.2383 53.5867 51.1067L54.0383 52.3933C54.3433 53.2617 53.8867 54.2133 53.0183 54.5183C52.8383 54.5833 52.6483 54.6133 52.4683 54.6133C51.7783 54.6133 51.1367 54.185 50.8967 53.5L50.445 52.2133C50.1367 51.345 50.5917 50.3933 51.4617 50.0883Z" fill="#0471A6"/>
<path id="Vector_4" d="M53.5417 56.0116C54.41 55.7 55.3617 56.1633 55.6667 57.0317L60.3917 70.4916C60.6967 71.3583 60.24 72.3117 59.3717 72.6133C59.19 72.6783 59.0017 72.7083 58.82 72.7083C58.1317 72.7083 57.4883 72.2833 57.2483 71.595L52.5217 58.135C52.2167 57.2683 52.6733 56.3166 53.5417 56.0116Z" fill="#0471A6"/>
<path id="Vector_5" d="M58.115 37.2166C58.9833 36.9066 59.935 37.3666 60.2383 38.2366L67.1483 57.9233C67.4533 58.79 66.9967 59.7416 66.1283 60.045C65.9467 60.11 65.7583 60.14 65.5767 60.14C64.8883 60.14 64.2433 59.715 64.005 59.0266L57.095 39.34C56.79 38.4733 57.2467 37.5216 58.115 37.2166Z" fill="#0471A6"/>
<path id="Vector_6" d="M67.2534 63.245C68.1234 62.935 69.0717 63.3967 69.3767 64.2633L70.3934 67.1533C70.6984 68.0217 70.2417 68.9767 69.3734 69.2783C69.1917 69.3433 69.0034 69.3733 68.8217 69.3733C68.1334 69.3733 67.49 68.9483 67.25 68.26L66.2334 65.37C65.9284 64.5033 66.385 63.55 67.2534 63.245Z" fill="#0471A6"/>
</g>
</g>
</svg>
