<?xml version="1.0" encoding="UTF-8"?><svg id="Layer_1" xmlns="http://www.w3.org/2000/svg" viewBox="0 0 2732 394"><defs><style>.cls-1{fill:#fff;}.cls-2{fill:#92cd91;}</style></defs><path class="cls-1" d="M820.14,63.95c-8.04,0-14.35,6.3-14.35,14.35v80.27c-17.78-18.63-42.58-29.39-69.02-29.39-53.81,0-95.97,43.07-95.97,98.06s42.16,98.07,95.97,98.07c26.42,0,51.24-10.76,69.02-29.39v13.65c0,8.11,6.44,14.7,14.35,14.7s14.35-6.59,14.35-14.7V78.3c0-8.05-6.31-14.35-14.35-14.35Zm-14.35,160.16v6.16c-1.68,38.63-30.88,67.75-67.97,67.75s-68.33-31.09-68.33-70.77,30.02-70.76,68.33-70.76,66.34,29.17,67.97,67.63Z"/><path class="cls-1" d="M887.42,130.23c-8.18,0-14.35,6.16-14.35,14.34v164.99c0,8.25,6.31,14.7,14.35,14.7s14.34-6.59,14.34-14.7V144.58c0-8.04-6.3-14.34-14.34-14.34Z"/><path class="cls-1" d="M1029.03,156.48c20.06,0,38.35,8.58,51.52,24.17l1.15,1.09c2.44,2.11,5.47,4.75,10.47,4.75,8.04,0,14.34-6,14.34-13.65,0-3.79-2.09-7.73-4.13-10.27-18.33-21.52-44.37-33.37-73.35-33.37-54.39,0-97.01,43.07-97.01,98.06s42.62,98.07,97.01,98.07c28.77,0,54.82-11.98,73.45-33.84,1.86-2.31,4.03-6.27,4.03-9.81,0-7.85-6.3-14-14.34-14-5.83,0-9.39,3.57-11.67,5.88-13.03,15.78-31.31,24.47-51.47,24.47-38.31,0-68.33-31.09-68.33-70.77s30.02-70.76,68.33-70.76Z"/><path class="cls-1" d="M1305.96,130.23c-8.04,0-14.35,6.3-14.35,14.34v14c-17.78-18.63-42.58-29.39-69.02-29.39-53.82,0-95.98,43.07-95.98,98.06s42.16,98.07,95.98,98.07c26.42,0,51.24-10.76,69.02-29.39v13.65c0,8.11,6.44,14.7,14.35,14.7s14.35-6.59,14.35-14.7V144.58c0-8.04-6.31-14.34-14.35-14.34Zm-14.35,93.87v6.16c-1.67,38.63-30.87,67.75-67.97,67.75s-68.33-31.09-68.33-70.77,30.02-70.76,68.33-70.76,66.35,29.17,67.97,67.63Z"/><path class="cls-1" d="M1373.24,63.95c-8.18,0-14.35,6.17-14.35,14.35v231.27c0,8.25,6.31,14.7,14.35,14.7s14.35-6.59,14.35-14.7V78.3c0-8.05-6.31-14.35-14.35-14.35Z"/><path class="cls-1" d="M1984.29,63.95c-4.03,0-8.03,2.01-10.93,5.5l-169.01,201.3V79c0-8.44-6.46-15.05-14.7-15.05s-14.7,6.61-14.7,15.05v230.22c0,8.29,6.59,15.05,14.7,15.05,4.82,0,8.78-2.08,11.98-6.2l192.92-230.21c2.59-2.6,4.09-6.08,4.09-9.56,0-8.05-6.31-14.35-14.35-14.35Z"/><path class="cls-1" d="M2019.83,130.23c-8.18,0-14.35,6.16-14.35,14.34v164.99c0,8.25,6.31,14.7,14.35,14.7s14.34-6.59,14.34-14.7V144.58c0-8.04-6.3-14.34-14.34-14.34Z"/><path class="cls-1" d="M2133.11,215.6c-25.6-7.9-38.6-15.13-38.6-32.65,0-13.52,8.83-27.16,28.57-27.16s28.84,12.33,30.07,25.2c1.64,7.65,7.8,11.08,13.17,11.08,7.66,0,13.66-6,13.66-13.65,0-28.07-24.46-49.23-56.9-49.23s-56.56,22.61-56.56,53.76c0,38.73,31.28,48.87,54.05,56.26,22.56,7.65,31.75,17.12,31.75,32.69,0,12.83-10.37,26.47-29.6,26.47s-29.88-12.75-31.55-26.2c-1.62-5.93-7-10.08-13.1-10.08-7.65,0-13.65,6-13.65,13.65,0,26.87,26.7,49.58,58.29,49.58s58.29-24.12,58.29-53.76c0-27.69-16.14-46.52-47.91-55.95Z"/><path class="cls-1" d="M2357.45,130.23c-8.04,0-14.35,6.3-14.35,14.34v95.23c0,35.9-19.76,58.21-51.58,58.21s-51.58-22.31-51.58-58.21v-95.23c0-8.04-6.31-14.34-14.35-14.34s-14.34,6.16-14.34,14.34v94.88c0,51.35,32.26,85.85,80.27,85.85s80.27-34.5,80.27-85.85v-94.88c0-8.04-6.3-14.34-14.34-14.34Z"/><path class="cls-1" d="M2581.37,130.23c-8.04,0-14.35,6.3-14.35,14.34v14c-17.79-18.63-42.59-29.39-69.03-29.39-53.81,0-95.97,43.07-95.97,98.06s42.16,98.07,95.97,98.07c26.42,0,51.24-10.76,69.03-29.39v13.65c0,8.11,6.44,14.7,14.35,14.7s14.34-6.59,14.34-14.7V144.58c0-8.04-6.3-14.34-14.34-14.34Zm-14.35,93.87v6.16c-1.68,38.63-30.89,67.75-67.98,67.75s-68.31-31.09-68.31-70.77,30-70.76,68.31-70.76,66.35,29.17,67.98,67.63Z"/><path class="cls-1" d="M2648.65,63.95c-8.18,0-14.35,6.17-14.35,14.35v231.27c0,8.25,6.31,14.7,14.35,14.7s14.35-6.59,14.35-14.7V78.3c0-8.05-6.31-14.35-14.35-14.35Z"/><path class="cls-1" d="M420,77.36c.17-5-2.35-9.94-6.98-12.63-2.88-1.68-6.11-2.22-9.18-1.75-3.88,.33-7.05,2.02-10.1,5.36l-8.84,16.73-101.05,173.52,.44-184.11c-1.5-6.7-7.24-11.56-14.31-11.56-4.76,0-8.43,1.77-11.91,5.76L64.74,299.34c-2.55,3.07-3.74,6.1-3.74,9.53,0,7.77,6.57,14.34,14.35,14.34,4.03,0,8.02-2,10.93-5.49L255.3,116.09v192.08c0,8.29,6.59,15.04,14.69,15.04,3.69,0,7.06-1.41,9.65-3.72,1.47-1.1,2.75-2.5,3.73-4.19l106.92-183.6v176.47c0,8.15,6.89,15.04,15.04,15.04s14.7-6.89,14.7-15.04V77.95c0-.2-.02-.39-.03-.59Z"/><path class="cls-2" d="M1577.84,66.29c-73.68,0-133.41,59.73-133.41,133.41s59.73,133.41,133.41,133.41,133.41-59.73,133.41-133.41-59.73-133.41-133.41-133.41Zm51.12,141.79l-65.7,40.01c-1.8,1.09-3.82,1.64-5.86,1.64-1.86,0-3.71-.46-5.39-1.38-3.53-1.93-5.76-5.59-5.86-9.61l-1.8-76.9c-.09-4.02,1.97-7.78,5.39-9.87,3.45-2.09,7.72-2.2,11.25-.26l67.5,36.89c3.53,1.93,5.76,5.59,5.86,9.61,.09,4.02-1.97,7.78-5.39,9.87Z"/><path class="cls-1" d="M609.84,267.66c-4.93,0-8.29,2.88-11.67,5.88-13.03,15.78-31.31,24.47-51.47,24.47-10.92,0-21.15-2.53-30.22-7.06l88.18-107.17,6.96-8.29c3.1-3.53,4.54-6.93,4.54-10.69,0-3.98-1.7-7.87-4.98-11.13-17.33-15.79-40.22-24.49-64.48-24.49-54.39,0-97.01,43.07-97.01,98.06s42.62,98.07,97.01,98.07c28.77,0,54.82-11.98,73.45-33.84,1.86-2.31,4.03-6.27,4.03-9.81,0-7.85-6.3-14-14.34-14Zm-63.14-111.18c12.98,0,25.17,3.63,35.02,10.33l-61.07,74.21-1.02,1.21c-.09,.12-.18,.24-.27,.36l-25.09,30.5c-9.95-12.27-15.89-28.2-15.89-45.84,0-39.68,30.02-70.76,68.33-70.76Z"/></svg>
