<svg width="120" height="120" viewBox="0 0 120 120" fill="none" xmlns="http://www.w3.org/2000/svg">
<g id="Group 19">
<path id="Vector" d="M60.0013 120C93.0845 120 120 93.0845 120 59.9987C120 26.9181 93.0845 0 60.0013 0C26.9181 0 0 26.9181 0 59.9987C0 93.0845 26.9181 120 60.0013 120ZM60.0013 7.52069C88.9371 7.52069 112.479 31.0629 112.479 59.9987C112.479 88.9371 88.9371 112.479 60.0013 112.479C31.0603 112.479 7.52069 88.9371 7.52069 59.9987C7.51808 31.0629 31.0603 7.52069 60.0013 7.52069Z" fill="#0471A6"/>
<path id="Vector_2" d="M37.1263 73.4731H46.5242V82.8734C46.5242 84.9483 48.2082 86.6296 50.2831 86.6296H69.7119C71.7895 86.6296 73.4685 84.9459 73.4685 82.8734V73.4731H82.8685C84.9437 73.4731 86.625 71.7915 86.625 69.7142V50.2904C86.625 48.2155 84.941 46.5315 82.8685 46.5315H73.4685V37.1286C73.4685 35.0536 71.7869 33.3696 69.7119 33.3696H50.2831C48.2082 33.3696 46.5242 35.0536 46.5242 37.1286V46.5291H37.1263C35.049 46.5291 33.3647 48.2128 33.3647 50.288V69.7115C33.3647 71.7915 35.049 73.4731 37.1263 73.4731ZM40.8855 54.047H50.2831C52.3607 54.047 54.0447 52.363 54.0447 50.288V40.8904H65.9503V50.288C65.9503 52.363 67.6341 54.047 69.7119 54.047H79.1095V65.9523H69.7119C67.6341 65.9523 65.9503 67.6363 65.9503 69.7115V79.1115H54.0447V69.7115C54.0447 67.6363 52.3607 65.9523 50.2831 65.9523H40.8855V54.047Z" fill="#0471A6"/>
</g>
</svg>
