<svg width="122" height="122" viewBox="0 0 122 122" fill="none" xmlns="http://www.w3.org/2000/svg">
<path id="medical-equipment" d="M103.007 37.0024C98.7655 36.9943 94.6583 38.4876 91.4125 41.2176C88.1668 43.9477 85.992 47.7384 85.2733 51.9183C84.5546 56.0982 85.3384 60.3976 87.4859 64.055C89.6334 67.7123 93.006 70.4916 97.0064 71.9007V82.0053C97.0064 89.1666 94.1615 96.0347 89.0977 101.098C84.0339 106.162 77.1659 109.007 70.0046 109.007C62.8433 109.007 55.9753 106.162 50.9114 101.098C45.8476 96.0347 43.0028 89.1666 43.0028 82.0053V75.8849L61.748 60.8839C65.2669 58.0814 68.1071 54.5199 70.0563 50.4656C72.0056 46.4113 73.0135 41.9689 73.0048 37.4704V7.00039C73.0048 5.40899 72.3726 3.88277 71.2473 2.75747C70.122 1.63218 68.5958 1 67.0044 1H55.0036C53.4122 1 51.886 1.63218 50.7607 2.75747C49.6354 3.88277 49.0032 5.40899 49.0032 7.00039C49.0032 8.5918 49.6354 10.118 50.7607 11.2433C51.886 12.3686 53.4122 13.0008 55.0036 13.0008H61.004V37.4704C61.0102 40.17 60.4063 42.8361 59.2373 45.2696C58.0684 47.703 56.3647 49.8408 54.2535 51.5233L37.0024 65.3242L19.7573 51.5233C17.6447 49.8417 15.9396 47.7042 14.7696 45.2707C13.5996 42.8371 12.9949 40.1706 13.0008 37.4704V13.0008H19.0012C20.5926 13.0008 22.1189 12.3686 23.2441 11.2433C24.3694 10.118 25.0016 8.5918 25.0016 7.00039C25.0016 5.40899 24.3694 3.88277 23.2441 2.75747C22.1189 1.63218 20.5926 1 19.0012 1H7.00043C5.40903 1 3.88281 1.63218 2.75751 2.75747C1.63222 3.88277 1.00004 5.40899 1.00004 7.00039V37.4704C0.992716 41.967 2.00131 46.4071 3.9505 50.4593C5.8997 54.5115 8.73913 58.0709 12.2568 60.8719L31.002 75.8849V82.0053C31.002 92.3495 35.1112 102.27 42.4256 109.584C49.74 116.899 59.6605 121.008 70.0046 121.008C80.3487 121.008 90.2691 116.899 97.5835 109.584C104.898 102.27 109.007 92.3495 109.007 82.0053V71.9007C113.007 70.4916 116.38 67.7123 118.528 64.055C120.675 60.3976 121.459 56.0982 120.74 51.9183C120.022 47.7384 117.847 43.9477 114.601 41.2176C111.355 38.4876 107.248 36.9943 103.007 37.0024ZM103.007 61.0039C101.82 61.0039 100.66 60.652 99.6731 59.9927C98.6863 59.3334 97.9173 58.3962 97.4631 57.2998C97.0089 56.2034 96.8901 54.9969 97.1216 53.8329C97.3532 52.669 97.9247 51.5998 98.7638 50.7606C99.603 49.9215 100.672 49.35 101.836 49.1185C103 48.8869 104.207 49.0058 105.303 49.4599C106.399 49.9141 107.337 50.6832 107.996 51.6699C108.655 52.6567 109.007 53.8168 109.007 55.0036C109.007 56.595 108.375 58.1212 107.25 59.2465C106.124 60.3718 104.598 61.0039 103.007 61.0039Z" fill="#fff"/>
</svg>
