<svg width="120" height="116" viewBox="0 0 120 116" fill="none" xmlns="http://www.w3.org/2000/svg">
<g id="Group">
<path id="Vector" d="M39.4716 74.0547C40.3401 74.0388 41.0349 73.3442 41.019 72.4757C41.0033 71.6074 40.3085 70.9126 39.4402 70.9285C38.5717 70.9442 37.8768 71.639 37.8928 72.5073C37.8928 72.9179 38.0665 73.3126 38.3507 73.5968C38.6506 73.881 39.0453 74.0547 39.4716 74.0547Z" fill="#0471A6"/>
<path id="Vector_2" d="M94.736 74.0552H102.631C103.499 74.0552 104.21 73.3447 104.21 72.4762C104.21 71.6079 103.499 70.8974 102.631 70.8974H94.736C93.8677 70.8974 93.1572 71.6079 93.1572 72.4762C93.1572 73.3447 93.8518 74.0552 94.736 74.0552Z" fill="#0471A6"/>
<path id="Vector_3" d="M107.367 74.0545C108.236 74.0386 108.93 73.344 108.914 72.4754C108.899 71.6071 108.204 70.9123 107.335 70.9282C106.467 70.9439 105.772 71.6387 105.788 72.507C105.788 72.9177 105.962 73.3124 106.246 73.5966C106.546 73.8808 106.941 74.0545 107.367 74.0545Z" fill="#0471A6"/>
<path id="Vector_4" d="M118.42 72.4763H113.683V69.3185C113.683 66.6975 111.568 64.5819 108.947 64.5819H104.163C105.205 63.2239 105.773 61.566 105.789 59.8451C105.789 55.4873 102.252 51.9504 97.8942 51.9504C93.5364 51.9504 89.9995 55.4873 89.9995 59.8451C89.9995 61.566 90.568 63.2239 91.6259 64.5819H86.5575C86.7469 64.0765 86.8417 63.5397 86.8417 63.0029V56.6873C86.8417 54.0663 84.7259 51.9504 82.1049 51.9504H66.3158C66.2526 51.9504 66.1894 51.9504 66.1262 51.9661L61.3894 52.5188L39.3636 55.1083C35.9214 55.1556 33.1426 57.9662 33.1426 61.4239C33.1426 62.5293 33.4584 63.6186 34.0268 64.5819H30.0005C27.3794 64.5819 25.2636 66.6975 25.2636 69.3185V72.4763H20.527C19.6585 72.4763 18.948 73.1868 18.948 74.0554V78.7922C18.948 79.6605 19.6585 80.371 20.527 80.371H63.1578V104.055H56.8422C54.2212 104.055 52.1054 106.171 52.1054 108.792V113.529C52.1054 114.397 52.8159 115.107 53.6844 115.107H85.2629C86.1312 115.107 86.8417 114.397 86.8417 113.529V108.792C86.8417 106.171 84.7259 104.055 82.1049 104.055H75.7893V97.5181C79.1524 96.6655 81.1893 93.2394 80.3365 89.8762C79.7681 87.6499 78.0313 85.8972 75.7893 85.3288V80.371H118.42C119.289 80.371 119.999 79.6605 119.999 78.7922V74.0554C119.999 73.1868 119.289 72.4763 118.42 72.4763ZM93.1574 59.8451C93.1574 57.2241 95.2732 55.1083 97.8942 55.1083C100.515 55.1083 102.631 57.2241 102.631 59.8451C102.631 62.4661 100.515 64.5819 97.8942 64.5819C95.2732 64.5819 93.1574 62.4661 93.1574 59.8451ZM66.3947 55.1083H75.7893V58.2661H63.1578V55.4873L66.3947 55.1083ZM36.3163 61.4239C36.3163 59.6871 37.7373 58.2661 39.4741 58.2661C39.5371 58.2661 39.6003 58.2661 39.6635 58.2504L60 55.8661V59.8451C60 60.7134 60.7105 61.4239 61.579 61.4239H77.3683C78.2366 61.4239 78.9471 60.7134 78.9471 59.8451V55.1083H82.1049C82.9734 55.1083 83.6839 55.8188 83.6839 56.6873V63.0029C83.6839 63.8712 82.9734 64.5819 82.1049 64.5819H39.4741C37.7214 64.5819 36.3163 63.1607 36.3163 61.4239ZM22.1058 77.2132V75.6344H25.2636C25.2636 75.9343 25.2952 76.2342 25.3584 76.5186C25.3743 76.6132 25.4057 76.708 25.4373 76.7869C25.4689 76.929 25.5005 77.0711 25.5478 77.1975H22.1058V77.2132ZM28.4217 75.6344V74.0554H34.7373C35.6056 74.0554 36.3163 73.3448 36.3163 72.4763C36.3163 71.608 35.6056 70.8975 34.7373 70.8975H28.4217V69.3185C28.4217 68.4502 29.1322 67.7397 30.0005 67.7397H108.947C109.815 67.7397 110.526 68.4502 110.526 69.3185V75.6344C110.526 76.5027 109.815 77.2132 108.947 77.2132H30.0005C29.1162 77.2132 28.4217 76.5027 28.4217 75.6344ZM83.6839 108.792V111.95H55.2634V108.792C55.2634 107.923 55.9739 107.213 56.8422 107.213H82.1049C82.9734 107.213 83.6839 107.923 83.6839 108.792ZM77.3683 91.4234C77.3683 93.1602 75.9473 94.5815 74.2103 94.5815C72.4735 94.5815 71.0525 93.1602 71.0525 91.4234C71.0525 89.6866 72.4735 88.2656 74.2103 88.2656C75.9473 88.2656 77.3683 89.6866 77.3683 91.4234ZM72.6315 85.3131C72.4105 85.3763 72.2052 85.4393 71.9999 85.5341C71.9051 85.5657 71.7946 85.5973 71.7 85.6446C71.3526 85.7867 71.0209 85.9763 70.7051 86.1814C70.6421 86.2289 70.5789 86.2762 70.5157 86.3394C70.2787 86.5131 70.0421 86.7025 69.8368 86.8919C69.742 86.9867 69.6631 87.0815 69.5682 87.192C69.3948 87.3657 69.2368 87.5551 69.0947 87.7604C69.0158 87.8709 68.9369 87.9973 68.8577 88.1235C68.7315 88.3288 68.621 88.5341 68.5105 88.7551C68.4473 88.8815 68.3841 89.0077 68.3368 89.1498C68.242 89.3867 68.1632 89.6393 68.0999 89.8919C68.0683 90.0183 68.0367 90.1288 68.0051 90.255C67.8473 91.0287 67.8473 91.8497 68.0051 92.6234C68.021 92.7498 68.0683 92.8603 68.0999 92.9865C68.1632 93.2393 68.242 93.4919 68.3368 93.7286C68.3841 93.855 68.4473 93.9972 68.5105 94.1236C68.6051 94.3446 68.7315 94.5499 68.8577 94.755C68.9369 94.8814 69.0158 94.9919 69.0947 95.1183C69.2368 95.3234 69.3948 95.4971 69.5682 95.6867C69.6631 95.7813 69.742 95.892 69.8368 95.9866C70.0421 96.1919 70.2787 96.3813 70.5157 96.5393C70.5789 96.5866 70.6421 96.6498 70.7051 96.6971C71.0209 96.9024 71.3526 97.0918 71.7 97.2339C71.7946 97.2814 71.9051 97.2971 71.9999 97.3446C72.2052 97.4235 72.4105 97.5024 72.6315 97.5656V104.071H66.3158V80.3869H72.6315V85.3131ZM116.841 77.2132H113.415C113.462 77.087 113.494 76.9449 113.526 76.8028C113.541 76.708 113.573 76.6291 113.589 76.5343C113.652 76.2344 113.683 75.95 113.683 75.6501H116.841V77.2132Z" fill="#0471A6"/>
<path id="Vector_5" d="M73.0875 90.3013C72.4718 90.917 72.4718 91.9276 73.1032 92.5276C73.7192 93.1433 74.7296 93.1433 75.3296 92.5117C75.9455 91.896 75.9455 90.9013 75.3296 90.2854C74.6823 89.717 73.7192 89.717 73.0875 90.3013Z" fill="#0471A6"/>
<path id="Vector_6" d="M105.676 28.2677C105.549 28.2677 105.407 28.2677 105.281 28.2836C104.413 28.3941 103.797 29.1835 103.907 30.052C104.018 30.9203 104.807 31.5362 105.676 31.4255C106.876 31.6467 107.965 32.2467 108.77 33.1623C109.544 33.8887 110.113 34.8045 110.444 35.8149C110.081 36.6045 110.428 37.5517 111.218 37.915C111.423 38.0096 111.644 38.0572 111.881 38.0572C112.007 38.0572 112.149 38.0572 112.276 38.0412C112.986 37.9623 113.555 37.4096 113.649 36.6991C113.633 34.4887 112.67 32.3888 111.012 30.9362C109.623 29.4204 107.728 28.473 105.676 28.2677Z" fill="#0471A6"/>
<path id="Vector_7" d="M118.421 14.0574C117.553 14.0574 116.842 14.768 116.842 15.6364V22.8836L113.195 26.5309C111.095 24.7152 108.458 23.6573 105.695 23.5309C103.942 23.4679 102.237 24.1309 100.99 25.3468C99.3635 27.1152 98.7476 29.5782 99.3635 31.8993C99.9635 34.5044 101.305 36.8888 103.216 38.7518C105.49 41.1675 108.6 42.6201 111.9 42.7938C113.653 42.857 115.358 42.1938 116.605 40.9781C118.232 39.2097 118.847 36.7467 118.232 34.4256C117.758 32.3413 116.795 30.3992 115.421 28.7729L119.542 24.652C119.826 24.3521 120 23.9415 120 23.5309V15.6364C120 14.768 119.289 14.0574 118.421 14.0574ZM114.363 38.7361C113.684 39.3518 112.8 39.6676 111.884 39.6203C109.421 39.4466 107.1 38.3255 105.427 36.4939C103.942 35.0728 102.9 33.2571 102.427 31.2518C102.063 29.9729 102.348 28.5994 103.184 27.5572C103.863 26.9415 104.748 26.6257 105.663 26.673C108.126 26.8467 110.448 27.9678 112.121 29.7992C113.605 31.2204 114.647 33.0361 115.121 35.0413C115.484 36.3361 115.2 37.7098 114.363 38.7361Z" fill="#0471A6"/>
<path id="Vector_8" d="M17.3682 110.371H15.7892V38.6243C16.5313 37.9613 17.1629 37.1876 17.6681 36.3191H31.5785C34.1995 36.3191 36.3153 34.2035 36.3153 31.5825C36.3153 28.9615 34.1995 26.8457 31.5785 26.8457H29.9995V18.5089C30.9785 17.9563 31.5785 16.9142 31.5785 15.7932C31.5785 15.5248 31.5312 15.2563 31.4523 14.9879L34.8627 11.5775L42.3467 19.0615C42.6468 19.3615 43.0415 19.5194 43.4678 19.5194C43.5467 19.5194 43.6256 19.5194 43.7045 19.5036L46.815 19.0458L60.4569 32.6877C61.0885 33.2877 62.0832 33.2718 62.6832 32.6561C63.2675 32.0404 63.2675 31.0771 62.6832 30.4614L49.0414 16.8195L49.4993 13.709C49.5782 13.2195 49.4045 12.7143 49.0573 12.3669L37.1679 0.461835C36.5522 -0.153945 35.5573 -0.153945 34.9416 0.461835L33.8205 1.58287L32.6996 0.461835C32.068 -0.138156 31.0733 -0.122367 30.4733 0.493413C29.889 1.10919 29.889 2.07234 30.4733 2.68811L31.5785 3.80916L30.4733 4.93018C29.8574 5.54596 29.8574 6.54069 30.4733 7.15647L32.6521 9.33538L29.2417 12.7459C28.9734 12.6827 28.7049 12.6353 28.4207 12.6353C26.6839 12.6353 25.2628 14.0406 25.2628 15.7774C25.2628 16.8984 25.8629 17.9563 26.8417 18.5089V26.8457H17.6681C15.063 22.3142 9.26826 20.751 4.75256 23.3562C0.236841 25.9615 -1.34206 31.756 1.26315 36.2718C1.76841 37.156 2.41577 37.9454 3.15786 38.6086V45.7928C1.42105 45.7928 0 47.2138 0 48.9506V58.424C0 60.1608 1.42105 61.582 3.15786 61.582V110.371H1.57893C0.710524 110.371 0 111.081 0 111.95C0 112.818 0.710524 113.528 1.57893 113.528H17.3682C18.2365 113.528 18.947 112.818 18.947 111.95C18.947 111.081 18.2524 110.371 17.3682 110.371ZM36.0468 3.80916L46.2625 14.0248L45.9783 15.9669L44.0362 16.2511L33.8205 6.03543L36.0468 3.80916ZM31.5785 30.0035C32.447 30.0035 33.1575 30.714 33.1575 31.5825C33.1575 32.4508 32.447 33.1613 31.5785 33.1613H18.8208C18.8365 33.114 18.8208 33.0508 18.8365 33.0035C18.9945 32.0718 18.9945 31.1087 18.8365 30.1772C18.8208 30.114 18.8365 30.0667 18.8208 30.0035H31.5785ZM9.47357 25.2667C11.9841 25.2667 14.2577 26.7509 15.2683 29.0404C16.6734 32.2298 15.2208 35.956 12.0157 37.3613C10.5788 37.9929 8.96837 38.0559 7.48412 37.5666C7.16832 37.4559 6.85253 37.3297 6.55255 37.1717C6.25255 37.0139 5.95255 36.8245 5.68413 36.6192C2.88943 34.5191 2.32103 30.5719 4.421 27.7772C5.62099 26.1984 7.48412 25.2667 9.47357 25.2667ZM3.15786 48.9506H6.31571V58.424H3.15786V48.9506ZM6.31571 110.371V61.582C8.05252 61.582 9.47357 60.1608 9.47357 58.424V48.9506C9.47357 47.2138 8.05252 45.7928 6.31571 45.7928V40.5191C6.33149 40.5191 6.36307 40.5348 6.37887 40.5348C6.82095 40.6769 7.27886 40.8033 7.73674 40.8822C7.7841 40.8822 7.81568 40.8981 7.86306 40.9138C8.92086 41.1032 10.0104 41.1032 11.0683 40.9138C11.1156 40.9138 11.1472 40.8981 11.1947 40.8822C11.6524 40.8033 12.1103 40.6769 12.5525 40.5348C12.5682 40.5348 12.5998 40.5191 12.6157 40.5191V110.371H6.31571Z" fill="#0471A6"/>
<path id="Vector_9" d="M9.47538 34.7396C11.2193 34.7396 12.6332 33.3257 12.6332 31.5816C12.6332 29.8377 11.2193 28.4238 9.47538 28.4238C7.73131 28.4238 6.3175 29.8377 6.3175 31.5816C6.3175 33.3257 7.73131 34.7396 9.47538 34.7396Z" fill="#0471A6"/>
</g>
</svg>
